<svg width="702" height="462" viewBox="0 0 702 462" fill="none" xmlns="http://www.w3.org/2000/svg">
<path d="M569.181 286.378C602.991 254.026 630.28 214.906 649.025 171.292C655.002 157.363 659.299 143.188 662.139 128.913C668.115 98.5116 648.309 69.0239 617.883 63.0474C609.288 61.368 600.743 61.7385 592.791 63.8377C574.096 68.7523 555.302 69.6661 537.298 67.0976C508.576 62.998 483.534 49.5878 464.764 30.2998C458.812 24.5949 451.848 19.9272 444.217 16.5685C398.997 -3.23812 350.395 -4.67052 306.731 8.98667C300.927 10.8142 295.272 12.9134 289.814 15.309C268.97 24.2985 250.744 37.1901 235.728 52.7983C210.908 78.5815 189.052 106.093 170.159 134.964C137.313 185.024 113.357 239.109 98.2181 295.047C77.5224 301.048 59.5187 307.79 44.7995 315.15C16.275 329.325 0 345.749 0 363.184C0 399.883 71.8916 431.866 178.358 448.709C185.57 449.869 192.929 450.931 200.462 451.944C246.002 457.994 296.926 461.378 350.691 461.378C544.386 461.378 701.382 417.418 701.382 363.184C701.382 332.091 649.766 304.382 569.181 286.378ZM187.15 401.341C164.281 401.341 144.549 387.659 135.806 368C123.903 341.229 122.1 312.507 128.718 286.107C147.685 211.35 182.433 142.891 229.233 84.484C256.597 50.304 293.716 28.5957 333.403 20.1248C341.281 18.4454 349.16 17.507 356.914 17.3588C386.847 16.6179 415.396 22.6685 441.055 34.0783C450.243 38.1286 457.75 44.3768 463.332 51.9092C465.653 54.9963 465.011 59.3923 461.899 61.7138C460.467 62.7757 458.788 63.2203 457.158 63.0721C420.631 60.1085 384.994 62.8498 351.061 70.5304C341.38 72.7284 333.23 78.137 327.501 85.3237C313.646 102.636 291.666 109.6 271.39 105.056C256.251 101.673 241.285 111.156 237.877 126.295C237.556 127.728 237.358 129.111 237.26 130.518C236.84 136.742 237.433 142.793 238.914 148.497C247.064 179.64 262.746 206.806 283.516 228.49C301.619 247.432 314.831 269.239 323.204 292.379C319.598 292.058 316.017 291.935 312.337 291.935C248.324 291.935 195.374 339.575 187.15 401.341ZM389.958 142.249C389.958 157.734 383.685 170.304 375.931 170.304C368.176 170.304 361.903 157.734 361.903 142.249C361.903 126.764 368.201 114.194 375.931 114.194C383.661 114.194 389.958 126.764 389.958 142.249Z" fill="#1A1000" style="fill:#1A1000;fill:color(display-p3 0.1020 0.0627 0.0000);fill-opacity:1;"/>
<path d="M389.958 142.249C389.958 157.734 383.685 170.304 375.931 170.304C368.176 170.304 361.903 157.734 361.903 142.249C361.903 126.764 368.201 114.194 375.931 114.194C383.661 114.194 389.958 126.764 389.958 142.249Z" fill="white" style="fill:white;fill-opacity:1;"/>
<path d="M461.899 61.7138C460.467 62.7757 458.788 63.2203 457.158 63.0721C420.631 60.1085 384.994 62.8498 351.061 70.5304C341.38 72.7284 333.23 78.137 327.501 85.3237C313.646 102.636 291.666 109.6 271.39 105.056C256.251 101.673 241.285 111.156 237.877 126.295C237.556 127.728 237.358 129.111 237.26 130.518C236.84 136.742 237.433 142.793 238.914 148.497C247.064 179.64 262.746 206.806 283.516 228.49C301.619 247.432 314.831 269.239 323.204 292.379C319.598 292.058 316.017 291.935 312.337 291.935C248.324 291.935 195.374 339.575 187.15 401.341C164.281 401.341 144.549 387.659 135.806 368C123.903 341.229 122.1 312.507 128.718 286.107C147.685 211.35 182.433 142.891 229.233 84.484C256.597 50.304 293.716 28.5957 333.403 20.1248C341.281 18.4454 349.16 17.507 356.914 17.3588C386.847 16.6179 415.396 22.6685 441.055 34.0783C450.243 38.1286 457.75 44.3768 463.332 51.9092C465.653 54.9963 465.011 59.3923 461.899 61.7138Z" fill="white" style="fill:white;fill-opacity:1;"/>
</svg>
