<svg width="3632" height="680" viewBox="0 0 3632 680" fill="none" xmlns="http://www.w3.org/2000/svg">
<path d="M2542.53 610.642V292.996H2476.61V215.085H2539.11C2527.12 187.687 2522.84 163.715 2522.84 141.454C2522.84 66.1118 2586.19 25.0158 2658.11 25.0158C2722.33 25.0158 2767.7 51.557 2785.68 107.208L2715.48 138.886C2706.91 112.345 2687.22 96.9338 2658.97 96.9338C2634.14 96.9338 2611.02 114.057 2611.02 150.872C2611.02 168.852 2617.02 189.4 2629.86 215.085H2748.87V292.996H2635.85V610.642H2542.53Z" fill="#0C0C0D" style="fill:#0C0C0D;fill:color(display-p3 0.0471 0.0471 0.0510);fill-opacity:1;"/>
<path d="M2634.82 499.621H2718.09V574.565H2634.82V499.621Z" fill="#0C0C0D" style="fill:#0C0C0D;fill:color(display-p3 0.0471 0.0471 0.0510);fill-opacity:1;"/>
<path d="M2859.74 610.642V292.996H2793.81V215.085H2856.31C2844.33 187.687 2840.05 163.715 2840.05 141.454C2840.05 66.1118 2903.4 25.0158 2975.32 25.0158C3039.53 25.0158 3084.91 51.557 3102.89 107.208L3032.68 138.886C3024.12 112.345 3004.43 96.9338 2976.18 96.9338C2951.35 96.9338 2928.23 114.057 2928.23 150.872C2928.23 168.852 2934.22 189.4 2947.07 215.085H3066.07V292.996H2953.06V610.642H2859.74Z" fill="#0C0C0D" style="fill:#0C0C0D;fill:color(display-p3 0.0471 0.0471 0.0510);fill-opacity:1;"/>
<path d="M2952.03 500.013H3035.3V574.957H2952.03V500.013Z" fill="#0C0C0D" style="fill:#0C0C0D;fill:color(display-p3 0.0471 0.0471 0.0510);fill-opacity:1;"/>
<path d="M1867.44 619.338C1783.54 619.338 1739.87 576.53 1739.87 482.351V271.734H1675.66V193.823H1742.44L1763.85 71.3912H1833.2V193.823H1998.44V271.734H1833.2V479.783C1833.2 518.31 1846.04 537.146 1875.15 537.146C1903.4 537.146 1924.81 514.029 1946.21 465.228L2018.13 502.043C1985.59 573.961 1934.22 619.338 1867.44 619.338Z" fill="#0C0C0D" style="fill:#0C0C0D;fill:color(display-p3 0.0471 0.0471 0.0510);fill-opacity:1;"/>
<path d="M1427.15 619.009C1270.47 619.009 1184 541.954 1184 437.501C1184 412.672 1189.14 385.275 1196.84 362.159L1285.88 386.987C1280.75 402.398 1279.03 418.666 1279.03 433.22C1279.03 499.145 1339.82 538.529 1429.72 538.529C1512.77 538.529 1564.14 502.57 1564.14 445.207C1564.14 394.693 1520.47 369.864 1464.82 357.878L1386.06 342.467C1250.78 315.926 1201.98 257.706 1201.98 171.233C1201.98 69.3495 1291.02 0 1412.6 0C1563.28 0 1642.05 73.6304 1650.61 201.199L1556.43 214.042C1545.3 130.137 1503.35 80.4797 1410.03 80.4797C1344.1 80.4797 1297.01 112.158 1297.01 166.953C1297.01 221.747 1348.38 244.864 1407.46 256.85L1486.23 272.261C1612.94 296.234 1659.17 354.453 1659.17 437.501C1659.17 551.371 1559 619.009 1427.15 619.009Z" fill="#0C0C0D" style="fill:#0C0C0D;fill:color(display-p3 0.0471 0.0471 0.0510);fill-opacity:1;"/>
<path d="M3281.77 618.19C3156.77 618.19 3063.45 530.861 3063.45 399.867C3063.45 271.442 3154.21 182.401 3275.78 182.401C3398.21 182.401 3471.84 267.161 3471.84 393.874C3471.84 403.292 3471.84 415.278 3470.99 421.271H3161.05C3166.19 495.758 3210.71 542.847 3282.63 542.847C3340.85 542.847 3376.81 512.025 3403.35 460.655L3476.12 500.895C3443.59 565.964 3383.66 618.19 3281.77 618.19ZM3161.91 357.915H3376.81C3371.67 291.99 3336.57 255.175 3273.21 255.175C3212.42 255.175 3170.47 294.559 3161.91 357.915Z" fill="#0C0C0D" style="fill:#0C0C0D;fill:color(display-p3 0.0471 0.0471 0.0510);fill-opacity:1;"/>
<path d="M3539.25 610.635V32.2495H3631.72V610.635H3539.25Z" fill="#0C0C0D" style="fill:#0C0C0D;fill:color(display-p3 0.0471 0.0471 0.0510);fill-opacity:1;"/>
<path d="M2250.01 618.19C2125.87 618.19 2032.54 527.436 2032.54 399.867C2032.54 272.298 2125.87 182.401 2250.01 182.401C2373.3 182.401 2466.62 272.298 2466.62 399.867C2466.62 527.436 2373.3 618.19 2250.01 618.19ZM2250.01 542.847C2321.93 542.847 2370.73 488.052 2370.73 399.867C2370.73 312.538 2321.93 257.744 2250.01 257.744C2178.09 257.744 2129.29 311.682 2129.29 399.867C2129.29 488.052 2178.09 542.847 2250.01 542.847Z" fill="#0C0C0D" style="fill:#0C0C0D;fill:color(display-p3 0.0471 0.0471 0.0510);fill-opacity:1;"/>
<path d="M838.885 422.077C888.715 374.395 928.936 316.739 956.563 252.459C965.371 231.93 971.705 211.037 975.891 189.998C984.699 145.191 955.507 101.731 910.664 92.9221C897.997 90.447 885.403 90.993 873.683 94.0869C846.129 101.33 818.429 102.677 791.894 98.8916C749.562 92.8493 712.654 73.0847 684.991 44.6572C676.219 36.2491 665.954 29.3697 654.707 24.4194C588.061 -4.77249 516.428 -6.88363 452.074 13.245C443.521 15.9385 435.185 19.0324 427.141 22.5631C396.42 35.8123 369.558 54.8125 347.427 77.8166C310.847 115.817 278.634 156.365 250.788 198.916C202.378 272.696 167.071 352.41 144.758 434.853C114.256 443.698 87.7214 453.635 66.0276 464.482C23.9869 485.375 0 509.58 0 535.278C0 589.367 105.957 636.503 262.873 661.327C273.501 663.038 284.348 664.603 295.45 666.096C362.569 675.013 437.624 680 516.864 680C802.341 680 1033.73 615.21 1033.73 535.278C1033.73 489.452 957.655 448.612 838.885 422.077ZM275.831 591.514C242.125 591.514 213.043 571.349 200.158 542.376C182.613 502.919 179.956 460.587 189.711 421.677C217.665 311.498 268.879 210.6 337.855 124.516C378.185 74.1403 432.892 42.1457 491.385 29.6608C502.996 27.1857 514.608 25.8026 526.037 25.5842C570.152 24.4922 612.229 33.4099 650.048 50.2262C663.588 56.1956 674.653 65.4046 682.88 76.5062C686.301 81.0561 685.355 87.5351 680.769 90.9566C678.657 92.5218 676.182 93.1769 673.78 92.9585C619.946 88.5907 567.422 92.6309 517.41 103.951C503.142 107.191 491.13 115.162 482.686 125.754C462.266 151.27 429.871 161.534 399.987 154.837C377.675 149.85 355.617 163.827 350.594 186.14C350.121 188.251 349.83 190.289 349.684 192.364C349.065 201.536 349.939 210.454 352.123 218.862C364.135 264.761 387.248 304.8 417.859 336.758C444.54 364.676 464.013 396.817 476.352 430.922C471.038 430.449 465.76 430.267 460.337 430.267C365.991 430.267 287.952 500.481 275.831 591.514ZM574.739 209.653C574.739 232.475 565.493 251.003 554.064 251.003C542.635 251.003 533.389 232.475 533.389 209.653C533.389 186.831 542.671 168.304 554.064 168.304C565.457 168.304 574.739 186.831 574.739 209.653Z" fill="#1A1000" style="fill:#1A1000;fill:color(display-p3 0.1020 0.0627 0.0000);fill-opacity:1;"/>
<path d="M574.739 209.653C574.739 232.475 565.493 251.003 554.064 251.003C542.635 251.003 533.389 232.475 533.389 209.653C533.389 186.831 542.671 168.304 554.064 168.304C565.457 168.304 574.739 186.831 574.739 209.653Z" fill="white" style="fill:white;fill-opacity:1;"/>
<path d="M680.769 90.9566C678.657 92.5218 676.182 93.1769 673.78 92.9585C619.946 88.5907 567.422 92.6309 517.41 103.951C503.142 107.191 491.13 115.162 482.686 125.754C462.266 151.27 429.871 161.534 399.987 154.837C377.675 149.85 355.617 163.827 350.594 186.14C350.121 188.251 349.83 190.289 349.684 192.364C349.065 201.536 349.939 210.454 352.123 218.862C364.135 264.761 387.248 304.8 417.859 336.758C444.54 364.676 464.013 396.817 476.352 430.922C471.038 430.449 465.76 430.267 460.337 430.267C365.991 430.267 287.952 500.481 275.831 591.514C242.125 591.514 213.043 571.349 200.158 542.376C182.613 502.919 179.956 460.587 189.711 421.677C217.665 311.498 268.879 210.6 337.855 124.516C378.185 74.1403 432.892 42.1457 491.385 29.6608C502.996 27.1857 514.608 25.8026 526.037 25.5842C570.152 24.4922 612.229 33.4099 650.048 50.2262C663.588 56.1956 674.653 65.4046 682.88 76.5062C686.301 81.0561 685.355 87.5351 680.769 90.9566Z" fill="white" style="fill:white;fill-opacity:1;"/>
</svg>
